<?xml version="1.0" encoding="utf-8"?>
<!-- Generator: Adobe Illustrator 23.0.4, SVG Export Plug-In . SVG Version: 6.00 Build 0)  -->
<svg version="1.1" id="Layer_1" xmlns="http://www.w3.org/2000/svg" xmlns:xlink="http://www.w3.org/1999/xlink" x="0px" y="0px"
	 viewBox="0 0 1713.22 545.62" style="enable-background:new 0 0 1713.22 545.62;" xml:space="preserve">
<style type="text/css">
	.st0{clip-path:url(#SVGID_2_);fill:#B61F34;}
	.st1{clip-path:url(#SVGID_2_);fill:#760008;}
	.st2{clip-path:url(#SVGID_2_);fill:#DA1A32;}
	.st3{clip-path:url(#SVGID_2_);}
	.st4{clip-path:url(#SVGID_4_);fill:none;stroke:#000000;stroke-width:5;stroke-linecap:round;stroke-linejoin:round;}
	.st5{clip-path:url(#SVGID_4_);fill:none;stroke:#D10000;stroke-width:4;stroke-linecap:round;stroke-linejoin:round;}
</style>
<g>
	<path d="M570.47,378.37c-0.54,0-1.33-0.29-1.69-0.68c-0.47-0.47-0.68-0.97-0.86-1.62c-1.44,0.97-3.2,2.3-4.32,2.3
		c-2.56,0-4.39-2.12-4.39-4.43c0-1.76,0.97-2.92,2.95-3.6c2.2-0.76,4.9-1.69,5.69-2.34v-0.72c0-2.56-1.29-4.03-3.17-4.03
		c-0.83,0-1.33,0.4-1.69,0.83c-0.4,0.5-0.65,1.3-0.97,2.34c-0.18,0.58-0.5,0.83-1.04,0.83c-0.68,0-1.58-0.72-1.58-1.58
		c0-0.5,0.47-0.94,1.19-1.44c1.04-0.76,3.13-2.09,5.18-2.52c1.08,0,2.2,0.32,3.02,0.97c1.26,1.08,1.83,2.3,1.83,4.17v6.95
		c0,1.66,0.61,2.16,1.26,2.16c0.43,0,0.9-0.18,1.3-0.4l0.36,1.01L570.47,378.37z M567.85,369.27c-0.79,0.4-2.52,1.15-3.35,1.51
		c-1.37,0.61-2.2,1.3-2.2,2.63c0,1.91,1.44,2.77,2.59,2.77c0.94,0,2.23-0.58,2.95-1.3C567.85,373.19,567.85,370.96,567.85,369.27z"
		/>
	<path d="M581.74,377.91c-0.61,0.32-1.19,0.47-1.55,0.47c-2.3,0-3.53-1.4-3.53-4.28v-10.47h-2.48l-0.14-0.43l0.97-1.04h1.66v-3.02
		c0.68-0.72,1.73-1.66,2.41-2.38l0.54,0.07c-0.07,1.51-0.11,3.6-0.11,5.33h4.1c0.32,0.36,0.22,1.15-0.22,1.48h-3.89v9.21
		c0,2.92,1.15,3.46,2.09,3.46c0.86,0,1.69-0.32,2.2-0.58l0.32,0.94L581.74,377.91z"/>
	<path d="M601.07,377.91c-0.61,0.32-1.19,0.47-1.55,0.47c-2.3,0-3.53-1.4-3.53-4.28v-10.47h-2.48l-0.14-0.43l0.97-1.04H596v-3.02
		c0.68-0.72,1.73-1.66,2.41-2.38l0.54,0.07c-0.07,1.51-0.11,3.6-0.11,5.33h4.1c0.32,0.36,0.22,1.15-0.22,1.48h-3.89v9.21
		c0,2.92,1.15,3.46,2.09,3.46c0.86,0,1.69-0.32,2.2-0.58l0.32,0.94L601.07,377.91z"/>
	<path d="M614.86,377.94v-1.01c2.09-0.22,2.38-0.4,2.38-2.77v-5.9c0-2.99-1.15-4.5-3.56-4.46c-1.37,0-2.81,0.68-3.82,1.87v8.5
		c0,2.34,0.29,2.56,2.45,2.77v1.01h-7.85v-1.01c2.09-0.18,2.56-0.36,2.56-2.77v-17.35c0-1.91-0.11-2.38-2.52-2.59v-0.94
		c1.91-0.18,4.07-0.72,5.36-1.22c0,1.4,0,2.99,0,4.46v7.81c1.29-1.3,3.28-2.63,5.22-2.63c2.95,0,5,1.84,5,6.16v6.34
		c0,2.38,0.29,2.56,2.38,2.74v1.01H614.86z"/>
	<path d="M637.58,374.88c-2.3,2.88-4.82,3.49-5.97,3.49c-4.39,0-7.06-3.6-7.06-7.74c0-2.45,0.86-4.72,2.34-6.3
		c1.51-1.69,3.49-2.63,5.36-2.63c3.13,0,5.51,2.7,5.51,5.58c-0.04,0.72-0.14,1.04-0.72,1.19c-0.72,0.14-5.33,0.47-9.61,0.61
		c-0.11,4.82,2.84,6.8,5.4,6.8c1.48,0,2.84-0.61,4.17-1.84L637.58,374.88z M631.38,363.08c-1.66,0-3.28,1.55-3.78,4.46
		c2.02,0,4.03,0,6.16-0.11c0.65,0,0.86-0.18,0.86-0.72C634.66,364.8,633.4,363.08,631.38,363.08z"/>
	<path d="M673.32,355.55c-2.27,0.14-3.1,0.72-3.17,2.38c-0.04,0.83-0.11,2.34-0.11,5.65v3.89c0,3.67-0.43,6.48-2.52,8.67
		c-1.69,1.76-4.14,2.3-6.62,2.3c-2.09,0-4.32-0.43-5.9-1.66c-2.16-1.66-3.2-4.14-3.2-8.35v-9.18c0-3.24-0.29-3.46-3.17-3.71v-1.01
		h9.47v1.01c-2.88,0.18-3.17,0.47-3.17,3.71v9c0,5.25,2.48,8.13,6.8,8.13c5.11,0,6.73-3.17,6.73-9.14v-3.67
		c0-3.31-0.11-4.68-0.18-5.65c-0.11-1.62-0.94-2.23-3.6-2.38v-1.01h8.64V355.55z"/>
	<path d="M683.69,377.94v-1.01c2.09-0.22,2.3-0.47,2.3-2.92v-5.94c0-2.52-0.9-4.21-3.28-4.21c-1.48,0-2.88,0.86-4,1.87v8.42
		c0,2.48,0.22,2.56,2.34,2.77v1.01h-7.78v-1.01c2.38-0.25,2.59-0.4,2.59-2.77v-7.42c0-2.34-0.25-2.45-2.2-2.77v-0.94
		c1.76-0.29,3.53-0.76,5.04-1.44c0,0.83,0,1.98,0,2.84c0.72-0.5,1.51-1.04,2.45-1.66c1.01-0.65,1.94-1.08,2.99-1.08
		c2.88,0,4.68,2.12,4.68,5.62v6.84c0,2.45,0.21,2.56,2.3,2.77v1.01H683.69z"/>
	<path d="M693.23,377.94v-1.01c2.27-0.22,2.52-0.4,2.52-2.84v-7.42c0-2.23-0.11-2.38-2.27-2.74v-0.86c1.87-0.32,3.56-0.79,5.11-1.44
		c0,1.51,0,3.02,0,4.54v7.92c0,2.45,0.25,2.63,2.59,2.84v1.01H693.23z M696.98,358.11c-1.01,0-1.91-0.9-1.91-1.91
		c0-1.15,0.9-1.98,1.94-1.98c1.01,0,1.84,0.83,1.84,1.98C698.85,357.21,698.02,358.11,696.98,358.11z"/>
	<path d="M718.68,363.11c-1.94,0.25-2.2,0.54-3.13,2.7c-1.19,2.88-3.24,7.67-5.11,12.53h-1.04c-1.51-4.14-3.28-8.42-4.97-12.63
		c-0.83-2.09-1.12-2.3-2.99-2.59v-0.97h7.34v0.97c-1.98,0.25-2.05,0.5-1.48,2.05c0.9,2.48,2.41,6.3,3.42,8.82
		c1.3-3.2,2.48-6.15,3.28-8.46c0.61-1.76,0.5-2.16-1.87-2.41v-0.97h6.55V363.11z"/>
	<path d="M732.51,374.88c-2.3,2.88-4.82,3.49-5.98,3.49c-4.39,0-7.05-3.6-7.05-7.74c0-2.45,0.86-4.72,2.34-6.3
		c1.51-1.69,3.49-2.63,5.36-2.63c3.13,0,5.51,2.7,5.51,5.58c-0.04,0.72-0.14,1.04-0.72,1.19c-0.72,0.14-5.33,0.47-9.61,0.61
		c-0.11,4.82,2.84,6.8,5.4,6.8c1.48,0,2.84-0.61,4.18-1.84L732.51,374.88z M726.32,363.08c-1.66,0-3.28,1.55-3.78,4.46
		c2.02,0,4.03,0,6.16-0.11c0.65,0,0.86-0.18,0.86-0.72C729.59,364.8,728.33,363.08,726.32,363.08z"/>
	<path d="M743.13,377.94h-8.28v-1.01c2.27-0.22,2.48-0.4,2.48-2.74v-7.49c0-2.38-0.14-2.48-2.23-2.74v-0.9
		c1.76-0.29,3.38-0.72,5.08-1.48c0,1.19,0,2.77,0,3.96c1.26-1.87,2.77-3.85,4.57-3.85c1.33,0,2.09,0.83,2.09,1.73
		c0,0.83-0.58,1.62-1.22,1.98c-0.36,0.22-0.65,0.18-0.94-0.07c-0.54-0.54-0.97-0.9-1.62-0.9c-0.76,0-2.09,1.12-2.88,2.95v6.77
		c0,2.38,0.18,2.56,2.95,2.77V377.94z"/>
	<path d="M757.42,366.42c-0.65-2.09-1.58-3.53-3.78-3.53c-1.26,0-2.23,0.9-2.23,2.34c0,1.55,1.04,2.27,3.06,3.2
		c3.1,1.48,4.64,2.56,4.64,4.93c0,3.31-3.02,5-5.87,5c-1.87,0-3.53-0.58-4.28-1.01c-0.18-1.04-0.5-3.02-0.65-4.21l1.04-0.18
		c0.65,2.3,1.91,4.18,4.43,4.18c1.37,0,2.52-0.94,2.52-2.45c0-1.62-0.97-2.45-2.88-3.38c-2.52-1.22-4.57-2.38-4.57-4.97
		c0-2.63,2.23-4.64,5.62-4.64c1.51,0,2.74,0.36,3.46,0.47c0.11,0.86,0.36,3.13,0.54,4L757.42,366.42z"/>
	<path d="M761.42,377.94v-1.01c2.27-0.22,2.52-0.4,2.52-2.84v-7.42c0-2.23-0.11-2.38-2.27-2.74v-0.86c1.87-0.32,3.56-0.79,5.11-1.44
		c0,1.51,0,3.02,0,4.54v7.92c0,2.45,0.25,2.63,2.59,2.84v1.01H761.42z M765.16,358.11c-1.01,0-1.91-0.9-1.91-1.91
		c0-1.15,0.9-1.98,1.94-1.98c1.01,0,1.84,0.83,1.84,1.98C767.03,357.21,766.2,358.11,765.16,358.11z"/>
	<path d="M778.05,377.91c-0.61,0.32-1.19,0.47-1.55,0.47c-2.3,0-3.53-1.4-3.53-4.28v-10.47h-2.48l-0.14-0.43l0.97-1.04h1.66v-3.02
		c0.68-0.72,1.73-1.66,2.41-2.38l0.54,0.07c-0.07,1.51-0.11,3.6-0.11,5.33h4.1c0.32,0.36,0.22,1.15-0.21,1.48h-3.89v9.21
		c0,2.92,1.15,3.46,2.09,3.46c0.87,0,1.69-0.32,2.2-0.58l0.32,0.94L778.05,377.91z"/>
	<path d="M798.49,363.11c-1.87,0.29-2.27,0.58-3.17,2.63c-0.9,2.02-1.87,4.46-4.36,10.73c-2.34,5.76-2.99,7.99-3.56,9.86
		c-0.22,0.76-0.61,0.94-1.08,0.94c-1.15,0-2.2-0.83-2.2-1.73c0-0.47,0.25-0.79,0.79-1.26c1.15-0.9,1.98-1.76,2.41-2.66
		c0.76-1.51,1.29-2.77,1.48-3.24c0.14-0.54,0.14-0.86-0.07-1.48c-1.4-4.1-3.35-8.53-4.43-11.12c-0.79-1.98-1.12-2.41-3.1-2.66v-0.97
		h7.27v0.97c-1.66,0.25-1.84,0.61-1.37,1.94l3.49,8.86c1.01-2.48,2.45-6.48,3.2-8.75c0.43-1.37,0.18-1.76-1.91-2.05v-0.97h6.59
		V363.11z"/>
	<path d="M815.45,361.71c4.5,0,7.85,3.42,7.85,8.06c0,5.83-4.32,8.6-7.85,8.6c-4.97,0-7.99-4-7.99-8.03
		C807.46,364.48,812.03,361.71,815.45,361.71z M815.02,362.93c-2.2,0-4.18,2.12-4.18,6.3c0,4.57,2.02,7.88,4.97,7.88
		c2.23,0,4.1-1.62,4.1-6.55C819.91,366.35,818.19,362.93,815.02,362.93z"/>
	<path d="M828.05,362.14v-0.97c0-2.59,0.9-5.26,3.17-7.2c1.26-1.12,2.63-1.73,4.03-1.91c1.22,0.04,2.34,0.47,2.92,1.15
		c0.32,0.4,0.4,0.76,0.21,1.26c-0.11,0.36-0.5,0.86-0.86,1.15c-0.4,0.25-0.68,0.18-1.04-0.07c-0.72-0.65-1.73-1.48-2.92-1.48
		c-2.66,0-2.66,3.64-2.66,6.37v1.69h3.82c0.21,0.32,0.04,1.22-0.36,1.48h-3.46v10.4c0,2.59,0.4,2.63,3.1,2.92v1.01h-8.46v-1.01
		c2.27-0.22,2.52-0.36,2.52-2.7v-10.62h-2.55l-0.14-0.4l0.79-1.08H828.05z"/>
	<path d="M869.62,355.55c-2.3,0.25-3.06,0.61-3.17,2.27c-0.04,1.15-0.11,2.66-0.11,6.01v14.43h-1.37l-15.41-18.83v9
		c0,3.24,0.11,4.86,0.18,5.9c0.07,1.84,0.97,2.38,3.56,2.59v1.01h-8.75v-1.01c2.23-0.18,3.1-0.72,3.24-2.48
		c0.11-1.15,0.18-2.77,0.18-6.05v-9.18c0-1.01-0.07-1.58-0.72-2.38c-0.69-0.9-1.44-1.12-3.21-1.3v-1.01h5.4l15.26,18.11v-8.82
		c0-3.35-0.07-4.9-0.18-5.98c-0.11-1.62-0.94-2.12-3.82-2.3v-1.01h8.89V355.55z"/>
	<path d="M884.03,374.88c-2.3,2.88-4.82,3.49-5.97,3.49c-4.39,0-7.05-3.6-7.05-7.74c0-2.45,0.86-4.72,2.34-6.3
		c1.51-1.69,3.49-2.63,5.36-2.63c3.13,0,5.51,2.7,5.51,5.58c-0.04,0.72-0.14,1.04-0.72,1.19c-0.72,0.14-5.33,0.47-9.61,0.61
		c-0.11,4.82,2.84,6.8,5.4,6.8c1.48,0,2.84-0.61,4.18-1.84L884.03,374.88z M877.84,363.08c-1.66,0-3.28,1.55-3.78,4.46
		c2.02,0,4.03,0,6.16-0.11c0.65,0,0.86-0.18,0.86-0.72C881.11,364.8,879.85,363.08,877.84,363.08z"/>
	<path d="M893.68,362.07c0.61-0.25,1.15-0.36,1.58-0.36c3.85,0,7.09,3.35,7.09,7.63c0,4.86-4.18,9.07-8.89,9.03
		c-1.55,0-3.56-0.36-5.54-1.3c0-0.94,0-1.91,0-2.88v-17.35c0-2.23-0.11-2.45-2.41-2.63v-0.94c1.69-0.22,3.92-0.76,5.25-1.22
		c0,1.4,0,2.84,0,4.28v6.98L893.68,362.07z M890.76,373.77c0,0.58,0.04,0.9,0.18,1.26c0.43,0.9,1.84,1.94,3.56,1.94
		c3.1,0,4.64-2.66,4.64-6.73c0-4.1-2.48-6.51-5.47-6.51c-1.04,0-2.23,0.32-2.92,0.68V373.77z"/>
	<path d="M912.97,377.94h-8.28v-1.01c2.27-0.22,2.48-0.4,2.48-2.74v-7.49c0-2.38-0.14-2.48-2.23-2.74v-0.9
		c1.76-0.29,3.38-0.72,5.08-1.48c0,1.19,0,2.77,0,3.96c1.26-1.87,2.77-3.85,4.57-3.85c1.33,0,2.09,0.83,2.09,1.73
		c0,0.83-0.58,1.62-1.22,1.98c-0.36,0.22-0.65,0.18-0.94-0.07c-0.54-0.54-0.97-0.9-1.62-0.9c-0.76,0-2.09,1.12-2.88,2.95v6.77
		c0,2.38,0.18,2.56,2.95,2.77V377.94z"/>
	<path d="M929.64,378.37c-0.54,0-1.33-0.29-1.69-0.68c-0.47-0.47-0.68-0.97-0.86-1.62c-1.44,0.97-3.2,2.3-4.32,2.3
		c-2.55,0-4.39-2.12-4.39-4.43c0-1.76,0.97-2.92,2.95-3.6c2.2-0.76,4.9-1.69,5.69-2.34v-0.72c0-2.56-1.29-4.03-3.17-4.03
		c-0.83,0-1.33,0.4-1.69,0.83c-0.4,0.5-0.65,1.3-0.97,2.34c-0.18,0.58-0.5,0.83-1.04,0.83c-0.68,0-1.58-0.72-1.58-1.58
		c0-0.5,0.47-0.94,1.19-1.44c1.04-0.76,3.13-2.09,5.18-2.52c1.08,0,2.2,0.32,3.02,0.97c1.26,1.08,1.84,2.3,1.84,4.17v6.95
		c0,1.66,0.61,2.16,1.26,2.16c0.43,0,0.9-0.18,1.3-0.4l0.36,1.01L929.64,378.37z M927.01,369.27c-0.79,0.4-2.52,1.15-3.35,1.51
		c-1.37,0.61-2.2,1.3-2.2,2.63c0,1.91,1.44,2.77,2.59,2.77c0.94,0,2.23-0.58,2.95-1.3C927.01,373.19,927.01,370.96,927.01,369.27z"
		/>
	<path d="M943.32,366.42c-0.65-2.09-1.58-3.53-3.78-3.53c-1.26,0-2.23,0.9-2.23,2.34c0,1.55,1.04,2.27,3.06,3.2
		c3.1,1.48,4.64,2.56,4.64,4.93c0,3.31-3.02,5-5.87,5c-1.87,0-3.53-0.58-4.28-1.01c-0.18-1.04-0.5-3.02-0.65-4.21l1.04-0.18
		c0.65,2.3,1.91,4.18,4.43,4.18c1.37,0,2.52-0.94,2.52-2.45c0-1.62-0.97-2.45-2.88-3.38c-2.52-1.22-4.57-2.38-4.57-4.97
		c0-2.63,2.23-4.64,5.62-4.64c1.51,0,2.74,0.36,3.46,0.47c0.11,0.86,0.36,3.13,0.54,4L943.32,366.42z"/>
	<path d="M964.85,377.94c-1.94,0-4.07,0.04-4.82,0.07c-0.22-0.25-5.87-6.95-6.08-7.16c-0.5-0.58-0.72-0.76-1.04-0.76
		c-0.14,0-0.43,0-0.65,0.07v4c0,2.41,0.18,2.56,2.52,2.77v1.01h-7.96v-1.01c2.41-0.22,2.59-0.47,2.59-2.77v-17.21
		c0-2.34-0.25-2.41-2.48-2.74v-0.94c1.87-0.18,4.03-0.72,5.33-1.22c0,1.55,0,3.02,0,4.57v12.6c1.08-0.25,1.76-0.68,2.3-1.26
		c0.83-0.83,2.16-2.45,2.77-3.35c0.76-1.04,0.47-1.33-1.26-1.48v-1.01l7.42-0.32v0.97c-2.52,0.4-3.24,0.68-4.79,2.3
		c-0.68,0.72-2.3,2.56-3.06,3.49c0.72,1.01,4.39,5.18,5.58,6.44c1.73,1.73,2.23,1.84,3.63,1.91V377.94z"/>
	<path d="M977.52,378.37c-0.54,0-1.33-0.29-1.69-0.68c-0.47-0.47-0.68-0.97-0.86-1.62c-1.44,0.97-3.2,2.3-4.32,2.3
		c-2.55,0-4.39-2.12-4.39-4.43c0-1.76,0.97-2.92,2.95-3.6c2.2-0.76,4.9-1.69,5.69-2.34v-0.72c0-2.56-1.29-4.03-3.17-4.03
		c-0.83,0-1.33,0.4-1.69,0.83c-0.4,0.5-0.65,1.3-0.97,2.34c-0.18,0.58-0.5,0.83-1.04,0.83c-0.68,0-1.58-0.72-1.58-1.58
		c0-0.5,0.47-0.94,1.19-1.44c1.04-0.76,3.13-2.09,5.18-2.52c1.08,0,2.2,0.32,3.02,0.97c1.26,1.08,1.84,2.3,1.84,4.17v6.95
		c0,1.66,0.61,2.16,1.26,2.16c0.43,0,0.9-0.18,1.3-0.4l0.36,1.01L977.52,378.37z M974.89,369.27c-0.79,0.4-2.52,1.15-3.35,1.51
		c-1.37,0.61-2.2,1.3-2.2,2.63c0,1.91,1.44,2.77,2.59,2.77c0.94,0,2.23-0.58,2.95-1.3C974.89,373.19,974.89,370.96,974.89,369.27z"
		/>
</g>
<rect x="347.65" y="704.45" style="fill:none;" width="33.61" height="3.36"/>
<g>
	<path d="M622.42,224.37h-13.1l-38.62-55.27v55.27h-12.99v-77.69h13.1l38.74,55.27v-55.27h12.88V224.37z"/>
	<path d="M653.05,159.66v19.42h32.3v12.88h-32.3v19.42h38.85v12.99h-51.83v-77.69h51.83v12.99H653.05z"/>
	<path d="M758.17,202.06c0,21.31-21.75,22.31-26.97,22.31h-25.86v-77.58h25.86c0,0,25.86-0.67,25.86,21.75
		c0,10.21-6.33,15.43-12.99,17.09C758.72,188.63,758.17,202.06,758.17,202.06z M718.21,179.08h12.99c0,0,12.88,0,12.88-9.66
		c0-10.43-12.88-9.77-12.88-9.77h-12.99V179.08z M745.18,201.72c0-10.43-13.98-9.66-13.98-9.66h-12.99v19.42h12.99
		C736.64,211.49,745.18,210.16,745.18,201.72z"/>
	<path d="M795.69,191.96h-10.54v32.41h-12.99v-77.69h25.86c0,0,25.97,0,25.97,22.64c0,12.54-7.99,18.09-14.98,20.64l15.87,34.41
		h-14.32L795.69,191.96z M785.14,179.08h12.88c0,0,12.99,0,12.99-9.77c0-9.66-12.99-9.66-12.99-9.66h-12.88V179.08z"/>
	<path d="M874.61,215.38h-27.3l-3.33,8.99h-13.99l30.97-79.91l31.08,79.91h-13.99L874.61,215.38z M851.52,204.17h18.87l-9.43-26.97
		L851.52,204.17z"/>
	<path d="M898.03,202.83h12.99c0.22,6.44,5.55,9.66,11.32,9.66c5.99,0,11.32-3.77,11.32-9.88c0-6.55-6.1-10.66-11.32-10.88
		c-0.67,0-5.99,0-11.65-2.55c-8.1-3.77-12.65-10.66-12.65-19.87c0-14.76,11.77-23.75,24.31-23.75c13.43,0,23.75,9.1,23.97,22.31
		h-12.88c-0.22-6.44-5.22-9.32-11.1-9.32c-6.1,0-11.32,3.55-11.32,10.77c0,6.44,5.55,9.88,11.32,9.88c0.55,0,5.99,0,11.54,2.55
		c8.21,3.77,12.65,11.65,12.65,20.87c0,14.87-11.65,22.86-24.2,22.86C908.91,225.14,898.25,217.37,898.03,202.83z"/>
	<path d="M990.05,186.19l32.3,38.18h-16.98l-23.97-29.52l-7.33,8.21v21.31h-12.99v-77.69h12.99v39.18l31.85-39.18h16.21
		L990.05,186.19z"/>
	<path d="M1068.63,215.38h-27.3l-3.33,8.99h-13.99l30.97-79.91l31.08,79.91h-13.99L1068.63,215.38z M1045.55,204.17h18.87
		l-9.43-26.97L1045.55,204.17z"/>
	<path d="M1168.98,215.38h-27.3l-3.33,8.99h-13.99l30.97-79.91l31.08,79.91h-13.99L1168.98,215.38z M1145.89,204.17h18.87
		l-9.43-26.97L1145.89,204.17z"/>
	<path d="M1247.12,169.43c0,22.75-25.97,22.75-25.97,22.75h-12.99v32.41h-12.99v-77.92h25.97
		C1221.15,146.67,1247.12,146.67,1247.12,169.43z M1234.13,169.43c0-9.77-12.99-9.77-12.99-9.77h-12.99v19.53h12.99
		C1221.15,179.19,1234.13,179.19,1234.13,169.43z"/>
	<path d="M1311.5,169.43c0,22.75-25.97,22.75-25.97,22.75h-12.99v32.41h-12.99v-77.92h25.97
		C1285.52,146.67,1311.5,146.67,1311.5,169.43z M1298.51,169.43c0-9.77-12.99-9.77-12.99-9.77h-12.99v19.53h12.99
		C1285.52,179.19,1298.51,179.19,1298.51,169.43z"/>
	<path d="M1365.66,211.38v12.99h-41.73v-77.69h12.99v64.71H1365.66z"/>
	<path d="M1379.87,146.67h12.99v77.69h-12.99V146.67z"/>
	<path d="M1423.61,159.66v19.42h32.3v12.88h-32.3v19.42h38.85v12.99h-51.83v-77.69h51.83v12.99H1423.61z"/>
	<path d="M1488.88,146.67c18.87,0,45.4,4.33,45.4,38.85c0,33.19-26.08,38.85-45.4,38.85h-12.99v-77.69H1488.88z M1521.17,185.52
		c0-31.08-32.3-26.19-32.3-26.19v52.39C1488.88,211.71,1521.17,216.15,1521.17,185.52z"/>
	<path d="M581.13,286.96h-10.54v32.41H557.6v-77.69h25.86c0,0,25.97,0,25.97,22.64c0,12.54-7.99,18.09-14.98,20.64l15.87,34.41H596
		L581.13,286.96z M570.58,274.08h12.88c0,0,12.99,0,12.99-9.77c0-9.66-12.99-9.66-12.99-9.66h-12.88V274.08z"/>
	<path d="M637.18,254.66v19.42h32.3v12.88h-32.3v19.42h38.85v12.99H624.2v-77.69h51.83v12.99H637.18z"/>
	<path d="M686.69,297.83h12.99c0.22,6.44,5.55,9.66,11.32,9.66c5.99,0,11.32-3.77,11.32-9.88c0-6.55-6.1-10.66-11.32-10.88
		c-0.67,0-5.99,0-11.65-2.55c-8.1-3.77-12.65-10.66-12.65-19.87c0-14.76,11.77-23.75,24.31-23.75c13.43,0,23.75,9.1,23.97,22.31
		H722.1c-0.22-6.44-5.22-9.32-11.1-9.32c-6.1,0-11.32,3.55-11.32,10.77c0,6.44,5.55,9.88,11.32,9.88c0.55,0,5.99,0,11.54,2.55
		c8.21,3.77,12.65,11.65,12.65,20.87c0,14.87-11.65,22.86-24.2,22.86C697.57,320.14,686.91,312.37,686.69,297.83z"/>
	<path d="M762.72,254.66v19.42h32.3v12.88h-32.3v19.42h38.85v12.99h-51.83v-77.69h51.83v12.99H762.72z"/>
	<path d="M850.86,310.38h-27.3l-3.33,8.99h-13.99l30.97-79.91l31.08,79.91H854.3L850.86,310.38z M827.77,299.17h18.87l-9.43-26.97
		L827.77,299.17z"/>
	<path d="M900.47,286.96h-10.54v32.41h-12.99v-77.69h25.86c0,0,25.97,0,25.97,22.64c0,12.54-7.99,18.09-14.98,20.64l15.87,34.41
		h-14.32L900.47,286.96z M889.93,274.08h12.88c0,0,12.99,0,12.99-9.77c0-9.66-12.99-9.66-12.99-9.66h-12.88V274.08z"/>
	<path d="M998.15,299.94l9.1,9.21c-6.99,6.99-16.65,11.32-27.42,11.32c-21.42,0-38.96-15.54-38.96-39.96
		c0-23.42,16.21-39.96,38.96-39.96c10.77,0,20.42,4.33,27.42,11.43l-9.1,9.1c-4.66-4.66-11.21-7.55-18.31-7.55
		c-15.98,0-25.75,11.32-25.75,26.97c0,16.65,11.43,26.97,25.75,26.97C986.94,307.49,993.49,304.6,998.15,299.94z"/>
	<path d="M1079.07,241.67v77.69h-12.99v-32.41h-32.3v32.41h-12.99v-77.69h12.99v32.19h32.3v-32.19H1079.07z"/>
	<path d="M1135.35,241.67h12.99v77.69h-12.99V241.67z"/>
	<path d="M1230.8,319.37h-13.1l-38.62-55.27v55.27h-12.99v-77.69h13.1l38.74,55.27v-55.27h12.88V319.37z"/>
	<path d="M1245.68,297.83h12.99c0.22,6.44,5.55,9.66,11.32,9.66c5.99,0,11.32-3.77,11.32-9.88c0-6.55-6.1-10.66-11.32-10.88
		c-0.67,0-5.99,0-11.65-2.55c-8.1-3.77-12.65-10.66-12.65-19.87c0-14.76,11.77-23.75,24.31-23.75c13.43,0,23.75,9.1,23.97,22.31
		h-12.88c-0.22-6.44-5.22-9.32-11.1-9.32c-6.1,0-11.32,3.55-11.32,10.77c0,6.44,5.55,9.88,11.32,9.88c0.55,0,5.99,0,11.54,2.55
		c8.21,3.77,12.65,11.65,12.65,20.87c0,14.87-11.65,22.86-24.2,22.86C1256.56,320.14,1245.9,312.37,1245.68,297.83z"/>
	<path d="M1347.68,253.55h-16.32v65.82h-12.88v-65.82h-16.32v-11.88h45.51V253.55z"/>
	<path d="M1358.79,241.67h12.99v77.69h-12.99V241.67z"/>
	<path d="M1428.49,253.55h-16.32v65.82h-12.88v-65.82h-16.32v-11.88h45.51V253.55z"/>
	<path d="M1439.26,294.5v-52.83h12.99v52.83c0.67,8.99,7.88,12.99,16.09,12.99c8.1,0,16.21-4.33,16.21-12.99v-52.83h12.99v52.83
		c0,16.54-12.65,25.97-29.19,25.97C1452.36,320.48,1439.26,310.49,1439.26,294.5z"/>
	<path d="M1554.03,253.55h-16.32v65.82h-12.88v-65.82h-16.32v-11.88h45.51V253.55z"/>
	<path d="M1577.79,254.66v19.42h32.3v12.88h-32.3v19.42h38.85v12.99h-51.83v-77.69h51.83v12.99H1577.79z"/>
</g>
<g>
	<g>
		<defs>
			<rect id="SVGID_1_" x="-16.48" y="-123.19" width="612" height="792"/>
		</defs>
		<clipPath id="SVGID_2_">
			<use xlink:href="#SVGID_1_"  style="overflow:visible;"/>
		</clipPath>
		<polygon class="st0" points="74.19,53.44 74.19,136.26 157.01,136.26 		"/>
		<polygon class="st0" points="239.83,219.08 239.83,136.26 157.01,136.26 		"/>
		<polygon class="st0" points="405.47,136.42 488.29,136.42 488.29,53.6 		"/>
		<polygon class="st0" points="157.01,302.07 74.19,302.06 74.19,384.89 		"/>
		<polygon class="st0" points="488.29,384.89 405.47,384.89 405.47,467.71 		"/>
		<polygon class="st1" points="74.19,219.08 157.01,219.08 157.01,136.26 		"/>
		<polygon class="st1" points="239.83,219.24 239.83,302.06 322.65,302.06 		"/>
		<polygon class="st1" points="405.47,219.24 405.47,302.06 488.29,302.07 		"/>
		<polygon class="st1" points="322.65,136.42 322.65,219.24 405.47,219.24 		"/>
		<polygon class="st1" points="405.47,467.71 405.47,384.89 322.65,384.89 		"/>
		<polygon class="st1" points="74.19,384.52 74.19,467.34 157.01,467.34 		"/>
		<polygon class="st1" points="157.01,302.06 157.01,384.89 239.83,384.89 		"/>
		<polygon class="st2" points="239.83,302.08 239.83,219.26 157.01,219.26 		"/>
		<polygon class="st2" points="405.47,384.89 405.47,302.07 322.65,302.07 		"/>
		<polygon class="st2" points="405.47,384.89 488.29,384.89 488.29,302.07 		"/>
		<polygon class="st2" points="405.47,219.24 488.29,219.24 488.29,136.42 		"/>
		<polygon class="st2" points="239.83,384.89 157.01,384.89 157.01,467.71 		"/>
		<polygon class="st2" points="74.19,219.24 74.19,302.06 157.01,302.06 		"/>
		<g class="st3">
			<defs>
				<rect id="SVGID_3_" x="-16.48" y="-123.19" width="612" height="792"/>
			</defs>
			<clipPath id="SVGID_4_">
				<use xlink:href="#SVGID_3_"  style="overflow:visible;"/>
			</clipPath>
			<path class="st4" d="M74.19,467.26l165.8,0.08l-0.01-164.87L405.48,467.8l83.69-0.1V53.6H322.65l0,165.74l0,0l-82.82-82.98
				L156.7,53.03c0,0-82.51-0.14-82.51,0.05l-0.2,414.26V53.54"/>
			<polyline class="st5" points="70.47,471.42 243.69,471.22 243.43,310.29 404.12,472.13 492.16,471.42 492.3,49.33 319.41,49.33 
				319.47,211.33 241.08,131.77 158.65,49.33 70.47,49.33 70.47,471.42 			"/>
		</g>
	</g>
</g>
</svg>
